<svg xmlns="http://www.w3.org/2000/svg" width="24" height="24" viewBox="0 0 24 24" fill="none">
  <rect x="3" y="3" width="18" height="18" rx="4" fill="#4086F5"/>
  <path d="M8.29304 11.2929C8.38585 11.2 8.49606 11.1263 8.61737 11.076C8.73869 11.0258 8.86872 10.9999 9.00004 10.9999C9.13135 10.9999 9.26138 11.0258 9.3827 11.076C9.50401 11.1263 9.61422 11.2 9.70704 11.2929L11 12.5858L14.293 9.29292C14.4816 9.11076 14.7342 9.00997 14.9964 9.01224C15.2586 9.01452 15.5094 9.11969 15.6949 9.3051C15.8803 9.49051 15.9854 9.74132 15.9877 10.0035C15.99 10.2657 15.8892 10.5183 15.707 10.7069L11.707 14.7069C11.6142 14.7998 11.504 14.8735 11.3827 14.9238C11.2614 14.974 11.1313 14.9999 11 14.9999C10.8687 14.9999 10.7387 14.974 10.6174 14.9238C10.4961 14.8735 10.3859 14.7998 10.293 14.7069L8.29304 12.7069C8.20014 12.6141 8.12644 12.5039 8.07616 12.3826C8.02588 12.2613 8 12.1312 8 11.9999C8 11.8686 8.02588 11.7386 8.07616 11.6173C8.12644 11.4959 8.20014 11.3857 8.29304 11.2929Z" fill="white"/>
</svg>