<svg xmlns="http://www.w3.org/2000/svg" width="24" height="24" viewBox="0 0 24 24" fill="none">
  <path d="M12 13.68C12.1661 13.68 12.3285 13.6307 12.4667 13.5384C12.6048 13.4461 12.7125 13.3149 12.776 13.1614C12.8396 13.0079 12.8562 12.839 12.8238 12.6761C12.7914 12.5132 12.7114 12.3635 12.5939 12.246C12.4765 12.1285 12.3268 12.0485 12.1639 12.0161C12.0009 11.9837 11.832 12.0003 11.6785 12.0639C11.525 12.1275 11.3938 12.2352 11.3015 12.3733C11.2092 12.5114 11.16 12.6738 11.16 12.84C11.16 13.0628 11.2485 13.2764 11.406 13.4339C11.5635 13.5915 11.7772 13.68 12 13.68ZM16.2 13.68C16.3661 13.68 16.5285 13.6307 16.6667 13.5384C16.8048 13.4461 16.9125 13.3149 16.976 13.1614C17.0396 13.0079 17.0562 12.839 17.0238 12.6761C16.9914 12.5132 16.9114 12.3635 16.7939 12.246C16.6765 12.1285 16.5268 12.0485 16.3639 12.0161C16.2009 11.9837 16.032 12.0003 15.8785 12.0639C15.725 12.1275 15.5938 12.2352 15.5015 12.3733C15.4092 12.5114 15.36 12.6738 15.36 12.84C15.36 13.0628 15.4485 13.2764 15.606 13.4339C15.7635 13.5915 15.9772 13.68 16.2 13.68ZM12 17.04C12.1661 17.04 12.3285 16.9907 12.4667 16.8984C12.6048 16.8061 12.7125 16.6749 12.776 16.5214C12.8396 16.3679 12.8562 16.199 12.8238 16.0361C12.7914 15.8732 12.7114 15.7235 12.5939 15.606C12.4765 15.4885 12.3268 15.4085 12.1639 15.3761C12.0009 15.3437 11.832 15.3603 11.6785 15.4239C11.525 15.4875 11.3938 15.5952 11.3015 15.7333C11.2092 15.8714 11.16 16.0338 11.16 16.2C11.16 16.4228 11.2485 16.6364 11.406 16.7939C11.5635 16.9515 11.7772 17.04 12 17.04ZM16.2 17.04C16.3661 17.04 16.5285 16.9907 16.6667 16.8984C16.8048 16.8061 16.9125 16.6749 16.976 16.5214C17.0396 16.3679 17.0562 16.199 17.0238 16.0361C16.9914 15.8732 16.9114 15.7235 16.7939 15.606C16.6765 15.4885 16.5268 15.4085 16.3639 15.3761C16.2009 15.3437 16.032 15.3603 15.8785 15.4239C15.725 15.4875 15.5938 15.5952 15.5015 15.7333C15.4092 15.8714 15.36 16.0338 15.36 16.2C15.36 16.4228 15.4485 16.6364 15.606 16.7939C15.7635 16.9515 15.9772 17.04 16.2 17.04ZM7.79998 13.68C7.96611 13.68 8.12852 13.6307 8.26665 13.5384C8.40479 13.4461 8.51246 13.3149 8.57603 13.1614C8.63961 13.0079 8.65625 12.839 8.62384 12.6761C8.59142 12.5132 8.51142 12.3635 8.39394 12.246C8.27647 12.1285 8.1268 12.0485 7.96385 12.0161C7.80091 11.9837 7.63201 12.0003 7.47852 12.0639C7.32503 12.1275 7.19384 12.2352 7.10154 12.3733C7.00924 12.5114 6.95998 12.6738 6.95998 12.84C6.95998 13.0628 7.04848 13.2764 7.20601 13.4339C7.36354 13.5915 7.57719 13.68 7.79998 13.68ZM17.88 5.27998H17.04V4.43998C17.04 4.21719 16.9515 4.00354 16.7939 3.84601C16.6364 3.68848 16.4228 3.59998 16.2 3.59998C15.9772 3.59998 15.7635 3.68848 15.606 3.84601C15.4485 4.00354 15.36 4.21719 15.36 4.43998V5.27998H8.63998V4.43998C8.63998 4.21719 8.55148 4.00354 8.39394 3.84601C8.23641 3.68848 8.02276 3.59998 7.79998 3.59998C7.57719 3.59998 7.36354 3.68848 7.20601 3.84601C7.04848 4.00354 6.95998 4.21719 6.95998 4.43998V5.27998H6.11998C5.45163 5.27998 4.81066 5.54547 4.33807 6.01807C3.86547 6.49066 3.59998 7.13163 3.59998 7.79998V17.88C3.59998 18.5483 3.86547 19.1893 4.33807 19.6619C4.81066 20.1345 5.45163 20.4 6.11998 20.4H17.88C18.5483 20.4 19.1893 20.1345 19.6619 19.6619C20.1345 19.1893 20.4 18.5483 20.4 17.88V7.79998C20.4 7.13163 20.1345 6.49066 19.6619 6.01807C19.1893 5.54547 18.5483 5.27998 17.88 5.27998ZM18.72 17.88C18.72 18.1028 18.6315 18.3164 18.4739 18.4739C18.3164 18.6315 18.1028 18.72 17.88 18.72H6.11998C5.89719 18.72 5.68354 18.6315 5.52601 18.4739C5.36848 18.3164 5.27998 18.1028 5.27998 17.88V10.32H18.72V17.88ZM18.72 8.63998H5.27998V7.79998C5.27998 7.57719 5.36848 7.36354 5.52601 7.20601C5.68354 7.04848 5.89719 6.95998 6.11998 6.95998H17.88C18.1028 6.95998 18.3164 7.04848 18.4739 7.20601C18.6315 7.36354 18.72 7.57719 18.72 7.79998V8.63998ZM7.79998 17.04C7.96611 17.04 8.12852 16.9907 8.26665 16.8984C8.40479 16.8061 8.51246 16.6749 8.57603 16.5214C8.63961 16.3679 8.65625 16.199 8.62384 16.0361C8.59142 15.8732 8.51142 15.7235 8.39394 15.606C8.27647 15.4885 8.1268 15.4085 7.96385 15.3761C7.80091 15.3437 7.63201 15.3603 7.47852 15.4239C7.32503 15.4875 7.19384 15.5952 7.10154 15.7333C7.00924 15.8714 6.95998 16.0338 6.95998 16.2C6.95998 16.4228 7.04848 16.6364 7.20601 16.7939C7.36354 16.9515 7.57719 17.04 7.79998 17.04Z" fill="#4086F5"/>
</svg>