<svg xmlns="http://www.w3.org/2000/svg" width="17" height="16" viewBox="0 0 17 16" fill="none">
  <path d="M12.4857 5.72669L13.0924 5.12669C13.2179 5.00115 13.2885 4.83089 13.2885 4.65335C13.2885 4.47582 13.2179 4.30556 13.0924 4.18002C12.9669 4.05448 12.7966 3.98396 12.6191 3.98396C12.4415 3.98396 12.2713 4.05448 12.1457 4.18002L11.5457 4.78669C10.6114 4.06392 9.46364 3.67178 8.28241 3.67178C7.10118 3.67178 5.95337 4.06392 5.01908 4.78669L4.41241 4.17335C4.28599 4.04782 4.11488 3.97764 3.93672 3.97827C3.75856 3.97889 3.58795 4.05027 3.46241 4.17669C3.33687 4.30311 3.2667 4.47422 3.26733 4.65238C3.26795 4.83054 3.33932 5.00115 3.46574 5.12669L4.07908 5.73335C3.34775 6.66505 2.95094 7.81558 2.95241 9.00002C2.95023 9.8503 3.15139 10.6888 3.53909 11.4455C3.9268 12.2023 4.48982 12.8554 5.1812 13.3503C5.87259 13.8453 6.67229 14.1677 7.51362 14.2908C8.35494 14.4139 9.21351 14.3341 10.0177 14.0579C10.8219 13.7818 11.5484 13.3174 12.1367 12.7035C12.7249 12.0895 13.1579 11.3438 13.3994 10.5285C13.6409 9.71327 13.684 8.85208 13.5251 8.01678C13.3661 7.18148 13.0098 6.39629 12.4857 5.72669ZM8.28574 13C7.49462 13 6.72126 12.7654 6.06346 12.3259C5.40567 11.8864 4.89298 11.2617 4.59023 10.5308C4.28747 9.79985 4.20826 8.99558 4.3626 8.21966C4.51694 7.44374 4.89791 6.731 5.45732 6.17159C6.01673 5.61218 6.72946 5.23122 7.50538 5.07688C8.28131 4.92254 9.08557 5.00175 9.81648 5.3045C10.5474 5.60725 11.1721 6.11994 11.6116 6.77774C12.0511 7.43554 12.2857 8.2089 12.2857 9.00002C12.2857 10.0609 11.8643 11.0783 11.1142 11.8284C10.364 12.5786 9.34661 13 8.28574 13ZM6.95241 3.00002H9.61908C9.79589 3.00002 9.96546 2.92978 10.0905 2.80476C10.2155 2.67973 10.2857 2.51016 10.2857 2.33335C10.2857 2.15654 10.2155 1.98697 10.0905 1.86195C9.96546 1.73692 9.79589 1.66669 9.61908 1.66669H6.95241C6.7756 1.66669 6.60603 1.73692 6.48101 1.86195C6.35598 1.98697 6.28574 2.15654 6.28574 2.33335C6.28574 2.51016 6.35598 2.67973 6.48101 2.80476C6.60603 2.92978 6.7756 3.00002 6.95241 3.00002ZM8.95241 7.00002C8.95241 6.82321 8.88217 6.65364 8.75715 6.52862C8.63212 6.40359 8.46255 6.33335 8.28574 6.33335C8.10893 6.33335 7.93936 6.40359 7.81434 6.52862C7.68931 6.65364 7.61908 6.82321 7.61908 7.00002V8.26002C7.46812 8.39504 7.36172 8.57271 7.31396 8.76952C7.26619 8.96633 7.27931 9.17301 7.35157 9.3622C7.42384 9.55139 7.55184 9.71418 7.71865 9.82903C7.88547 9.94388 8.08322 10.0054 8.28574 10.0054C8.48827 10.0054 8.68602 9.94388 8.85283 9.82903C9.01964 9.71418 9.14765 9.55139 9.21992 9.3622C9.29218 9.17301 9.3053 8.96633 9.25753 8.76952C9.20976 8.57271 9.10336 8.39504 8.95241 8.26002V7.00002Z" fill="#666666"/>
</svg>