<svg width="113" height="126" viewBox="0 0 113 126" fill="none" xmlns="http://www.w3.org/2000/svg">
<g style="mix-blend-mode:hard-light" filter="url(#filter0_f_506_738)">
<path d="M33.0791 22.8598L56.2541 9.72419L79.429 22.8597L102.392 36.3621L102.604 63L102.392 89.6379L79.4291 103.14L56.2541 116.276L33.079 103.14L10.1159 89.6379L9.90416 63L10.1159 36.3621L33.0791 22.8598Z" stroke="#03CAD6" stroke-width="3"/>
</g>
<g style="mix-blend-mode:hard-light" filter="url(#filter1_f_506_738)">
<path d="M33.0791 22.8598L56.2541 9.72419L79.429 22.8597L102.392 36.3621L102.604 63L102.392 89.6379L79.4291 103.14L56.2541 116.276L33.079 103.14L10.1159 89.6379L9.90416 63L10.1159 36.3621L33.0791 22.8598Z" stroke="#03CAD6" stroke-width="3"/>
</g>
<path d="M33.0791 22.8598L56.2541 9.72419L79.429 22.8597L102.392 36.3621L102.604 63L102.392 89.6379L79.4291 103.14L56.2541 116.276L33.079 103.14L10.1159 89.6379L9.90416 63L10.1159 36.3621L33.0791 22.8598Z" stroke="#03CAD6" stroke-width="3"/>
<defs>
<filter id="filter0_f_506_738" x="0.404114" y="0" width="111.7" height="126" filterUnits="userSpaceOnUse" color-interpolation-filters="sRGB">
<feFlood flood-opacity="0" result="BackgroundImageFix"/>
<feBlend mode="normal" in="SourceGraphic" in2="BackgroundImageFix" result="shape"/>
<feGaussianBlur stdDeviation="4" result="effect1_foregroundBlur_506_738"/>
</filter>
<filter id="filter1_f_506_738" x="4.40411" y="4" width="103.7" height="118" filterUnits="userSpaceOnUse" color-interpolation-filters="sRGB">
<feFlood flood-opacity="0" result="BackgroundImageFix"/>
<feBlend mode="normal" in="SourceGraphic" in2="BackgroundImageFix" result="shape"/>
<feGaussianBlur stdDeviation="2" result="effect1_foregroundBlur_506_738"/>
</filter>
</defs>
</svg>
