<svg xmlns="http://www.w3.org/2000/svg" width="17" height="16" viewBox="0 0 17 16" fill="none">
  <path d="M8.28573 1.33334C6.87124 1.33334 5.51468 1.89525 4.51449 2.89544C3.5143 3.89563 2.95239 5.25219 2.95239 6.66668C2.95239 10.2667 7.65239 14.3333 7.85239 14.5067C7.97315 14.61 8.12682 14.6667 8.28573 14.6667C8.44463 14.6667 8.5983 14.61 8.71906 14.5067C8.95239 14.3333 13.6191 10.2667 13.6191 6.66668C13.6191 5.25219 13.0572 3.89563 12.057 2.89544C11.0568 1.89525 9.70021 1.33334 8.28573 1.33334ZM8.28573 13.1C6.86573 11.7667 4.28573 8.89334 4.28573 6.66668C4.28573 5.60581 4.70715 4.5884 5.4573 3.83825C6.20744 3.0881 7.22486 2.66668 8.28573 2.66668C9.34659 2.66668 10.364 3.0881 11.1142 3.83825C11.8643 4.5884 12.2857 5.60581 12.2857 6.66668C12.2857 8.89334 9.70573 11.7733 8.28573 13.1ZM8.28573 4.00001C7.75831 4.00001 7.24274 4.15641 6.80421 4.44942C6.36567 4.74244 6.02388 5.15892 5.82205 5.64619C5.62021 6.13346 5.5674 6.66964 5.6703 7.18692C5.77319 7.7042 6.02717 8.17936 6.40011 8.5523C6.77305 8.92524 7.2482 9.17921 7.76549 9.2821C8.28277 9.385 8.81895 9.33219 9.30622 9.13036C9.79349 8.92852 10.21 8.58673 10.503 8.1482C10.796 7.70967 10.9524 7.19409 10.9524 6.66668C10.9524 5.95943 10.6714 5.28116 10.1713 4.78106C9.67125 4.28096 8.99297 4.00001 8.28573 4.00001ZM8.28573 8.00001C8.02202 8.00001 7.76423 7.92181 7.54497 7.7753C7.3257 7.62879 7.1548 7.42056 7.05389 7.17692C6.95297 6.93329 6.92657 6.6652 6.97801 6.40656C7.02946 6.14792 7.15645 5.91034 7.34292 5.72387C7.52939 5.5374 7.76696 5.41041 8.02561 5.35896C8.28425 5.30752 8.55234 5.33392 8.79597 5.43484C9.03961 5.53575 9.24784 5.70665 9.39435 5.92592C9.54086 6.14518 9.61906 6.40297 9.61906 6.66668C9.61906 7.0203 9.47858 7.35944 9.22853 7.60949C8.97849 7.85953 8.63935 8.00001 8.28573 8.00001Z" fill="#666666"/>
</svg>